<svg width="487" height="901" viewBox="0 0 487 901" fill="none" xmlns="http://www.w3.org/2000/svg">
<path d="M263.815 830.769C273.628 825.569 298.737 812.282 319.228 801.305C339.719 790.617 367.137 775.885 379.835 768.952C392.534 762.308 411.005 752.487 421.106 747.287L439 738.333V671.028V603.723H422.261C392.534 603.723 382.144 613.255 344.048 674.783C334.813 689.804 305.663 719.846 297.582 722.734C286.327 726.778 301.334 729.378 333.947 729.378C353.572 729.378 369.734 730.245 369.734 731.4C369.734 732.267 364.828 736.311 358.767 740.066C349.82 745.554 344.337 746.71 323.557 746.71C283.729 746.71 249.385 728.8 198.013 681.716C162.514 648.785 138.848 637.52 102.772 636.075C85.4557 635.209 71.8911 636.364 62.3671 638.964L47.9367 643.297L47.0709 688.937C46.7823 716.379 47.3595 735.733 49.0911 737.466C52.843 741.221 240.438 840.301 243.613 840.59C245.056 840.59 254.291 836.257 263.815 830.769ZM289.501 675.65C301.623 661.206 291.233 638.386 272.762 638.386C260.929 638.386 251.982 645.897 249.673 657.74C245.633 679.116 275.648 692.404 289.501 675.65ZM240.438 618.166C268.144 587.258 224.276 546.528 194.838 575.992C183.871 586.969 182.139 598.234 189.354 612.389C199.456 631.742 226.008 634.631 240.438 618.166ZM284.018 554.327C303.643 543.928 296.428 517.064 274.205 517.064C254.868 517.064 246.787 539.595 261.795 551.439C270.453 558.371 275.071 558.949 284.018 554.327ZM261.795 484.134C279.111 469.402 267.856 441.96 245.056 441.96C225.142 441.96 214.463 459.291 222.833 477.779C229.182 491.644 249.385 495.11 261.795 484.134ZM259.198 146.164C269.01 137.787 270.453 119.589 261.795 110.057C249.962 97.0578 226.296 99.9465 218.215 115.545C204.939 141.254 236.975 165.229 259.198 146.164ZM212.732 77.704C232.646 58.928 217.927 23.109 190.509 23.109C169.152 23.109 156.165 34.9524 156.165 54.8839C156.165 62.1055 162.803 80.8815 165.689 80.8815C165.977 80.8815 171.461 82.6147 177.521 84.9256C190.797 89.5474 202.919 86.9476 212.732 77.704ZM294.408 41.8851C314.899 31.486 307.684 0 284.884 0C258.043 0 251.982 39.2853 278.246 44.196C281.709 44.7737 284.884 45.6403 285.461 45.9292C286.038 45.9292 290.078 44.196 294.408 41.8851Z" fill="white"/>
<path d="M266.201 888.833C278.065 881.9 332.462 850.992 387.149 820.373L486.107 764.046L485.528 624.239L484.66 484.143L414.637 442.258L344.615 400.085L344.325 292.341V184.886H361.686H379.047V170.443V156H347.219H315.391V285.697V415.683L387.149 458.723L458.618 501.474V625.394V749.603L405.089 779.355C375.575 796.109 327.543 822.973 298.03 839.727C259.257 861.68 243.343 869.19 239.87 867.457C237.266 866.302 188.656 839.149 131.943 807.375L28.9349 749.603L29.803 625.683L30.3817 501.474L101.851 458.145L173.609 415.106V285.408V156H141.781H109.953V170.443V184.886H127.314H144.675L144.096 292.341L143.228 399.507L71.7586 442.836L0 486.165V623.083C0 751.625 0.289358 760.002 5.20829 764.335C10.1272 768.379 239.581 900.387 243.053 900.965C243.921 901.253 254.338 895.765 266.201 888.833Z" fill="white"/>
</svg>
