<svg xmlns="http://www.w3.org/2000/svg" viewBox="0 0 512 541" width="512" height="541">
<path d="M244.0,413.9 C244.0,388.7 244.2,368.0 244.4,368.0 C244.6,368.0 248.3,370.1 252.6,372.6 C261.4,377.8 260.1,377.9 271.8,371.0 L277.0,367.8 L277.0,414.4 C277.0,440.0 277.3,461.0 277.6,461.0 C277.9,461.0 281.3,459.2 285.1,457.0 L292.0,452.9 L292.0,398.5 C292.0,368.6 291.7,343.9 291.2,343.7 C290.8,343.4 284.0,347.0 276.1,351.6 C268.2,356.2 261.3,360.0 260.8,360.0 C260.2,360.0 255.7,357.6 250.7,354.7 C245.6,351.7 238.9,347.9 235.8,346.1 L230.0,342.9 L230.0,398.2 L230.1,453.5 L236.3,457.1 C239.7,459.1 242.8,460.5 243.2,460.3 C243.7,460.1 244.0,439.2 244.0,413.9 Z M267.3,326.6 C270.7,324.8 279.4,320.2 286.5,316.4 C293.6,312.7 303.1,307.6 307.5,305.2 C311.9,302.9 318.3,299.5 321.8,297.7 L328.0,294.6 L328.0,271.3 L328.0,248.0 L322.2,248.0 C311.9,248.0 308.3,251.3 295.1,272.6 C291.9,277.8 281.8,288.2 279.0,289.2 C275.1,290.6 280.3,291.5 291.6,291.5 C298.4,291.5 304.0,291.8 304.0,292.2 C304.0,292.5 302.3,293.9 300.2,295.2 C297.1,297.1 295.2,297.5 288.0,297.5 C274.2,297.5 262.3,291.3 244.5,275.0 C232.2,263.6 224.0,259.7 211.5,259.2 C205.5,258.9 200.8,259.3 197.5,260.2 L192.5,261.7 L192.2,277.5 C192.1,287.0 192.3,293.7 192.9,294.3 C194.2,295.6 259.2,329.9 260.3,330.0 C260.8,330.0 264.0,328.5 267.3,326.6 Z M276.2,272.9 C280.4,267.9 276.8,260.0 270.4,260.0 C266.3,260.0 263.2,262.6 262.4,266.7 C261.0,274.1 271.4,278.7 276.2,272.9 Z M259.2,253.0 C268.8,242.3 253.6,228.2 243.4,238.4 C239.6,242.2 239.0,246.1 241.5,251.0 C245.0,257.7 254.2,258.7 259.2,253.0 Z M274.3,230.9 C281.1,227.3 278.6,218.0 270.9,218.0 C264.2,218.0 261.4,225.8 266.6,229.9 C269.6,232.3 271.2,232.5 274.3,230.9 Z M266.6,206.6 C272.6,201.5 268.7,192.0 260.8,192.0 C253.9,192.0 250.2,198.0 253.1,204.4 C255.3,209.2 262.3,210.4 266.6,206.6 Z M265.7,89.6 C269.1,86.7 269.6,80.4 266.6,77.1 C262.5,72.6 254.3,73.6 251.5,79.0 C246.9,87.9 258.0,96.2 265.7,89.6 Z M249.6,65.9 C256.5,59.4 251.4,47.0 241.9,47.0 C234.5,47.0 230.0,51.1 230.0,58.0 C230.0,60.5 232.3,67.0 233.3,67.0 C233.4,67.0 235.3,67.6 237.4,68.4 C242.0,70.0 246.2,69.1 249.6,65.9 Z M277.9,53.5 C285.0,49.9 282.5,39.0 274.6,39.0 C265.3,39.0 263.2,52.6 272.3,54.3 C273.5,54.5 274.6,54.8 274.8,54.9 C275.0,54.9 276.4,54.3 277.9,53.5 Z" fill="#F5A623"/>
<path d="M306.2,447.2 L310.0,445.7 L310.2,418.2 L310.5,390.7 L320.0,384.8 L329.5,379.0 L329.8,407.5 C329.9,423.2 330.4,436.0 330.9,436.0 C331.3,436.0 334.7,434.6 338.4,433.0 L345.0,430.0 L345.0,370.5 C345.0,337.8 344.7,311.0 344.4,311.0 C344.1,311.0 332.8,317.6 319.4,325.7 L295.0,340.4 L295.0,396.2 L295.0,452.0 L298.8,450.4 C300.8,449.5 304.2,448.1 306.2,447.2 Z M225.0,444.7 L225.0,438.4 L217.2,433.9 L209.5,429.4 L209.2,388.7 C209.1,366.3 209.2,348.0 209.4,348.0 C209.6,348.0 212.9,349.8 216.8,352.0 C220.6,354.2 224.0,356.0 224.4,356.0 C224.8,356.0 225.0,352.3 224.8,347.8 L224.5,339.6 L203.5,327.3 C191.9,320.5 181.3,314.2 179.8,313.4 L177.0,311.9 L177.0,318.4 L177.0,324.8 L182.8,328.1 C185.9,330.0 189.7,332.1 191.2,332.8 L194.0,334.2 L194.2,377.1 C194.4,400.7 194.3,420.0 194.0,420.0 C193.7,420.0 190.1,418.0 186.0,415.5 C181.9,413.0 178.1,411.0 177.7,411.0 C177.3,411.0 177.0,413.8 177.2,417.2 L177.5,423.4 L201.0,437.2 C213.9,444.8 224.6,451.0 224.8,451.0 C224.9,451.0 225.0,448.2 225.0,444.7 Z M310.0,360.7 L310.0,348.3 L319.2,342.9 C324.2,339.9 328.7,337.4 329.2,337.2 C329.6,337.0 330.0,342.4 330.0,349.3 L330.0,361.8 L320.6,367.4 C315.4,370.5 310.9,373.0 310.6,373.0 C310.3,373.0 310.0,367.5 310.0,360.7 Z M268.0,346.7 C272.1,344.3 290.9,333.6 309.8,323.0 L344.0,303.5 L343.8,255.1 L343.5,206.6 L319.3,192.1 L295.1,177.5 L295.0,140.2 L295.0,103.0 L301.0,103.0 L307.0,103.0 L307.0,98.0 L307.0,93.0 L296.0,93.0 L285.0,93.0 L285.0,137.9 L285.0,182.9 L309.8,197.8 L334.5,212.6 L334.5,255.5 L334.5,298.5 L316.0,308.8 C305.8,314.6 289.2,323.9 279.0,329.7 C265.6,337.3 260.1,339.9 258.9,339.3 C258.0,338.9 241.2,329.5 221.6,318.5 L186.0,298.5 L186.3,255.6 L186.5,212.6 L211.2,197.6 L236.0,182.7 L236.0,137.8 L236.0,93.0 L225.0,93.0 L214.0,93.0 L214.0,98.0 L214.0,103.0 L220.0,103.0 L226.0,103.0 L225.8,140.2 L225.5,177.3 L200.8,192.3 L176.0,207.3 L176.0,254.7 C176.0,299.2 176.1,302.1 177.8,303.6 C179.5,305.0 258.8,350.7 260.0,350.9 C260.3,351.0 263.9,349.1 268.0,346.7 Z" fill="#FFFFFF"/>
</svg>
